name C:\flash-running\Simulations\OCP\..\results\trackingSim\trackingSim_10-Nov-2020_kinematics.mot
datacolumns 32
datarows 16
range 1.09600000 1.20880000
endheader
time	pelvis_tilt	pelvis_list	pelvis_rotation	pelvis_tx	pelvis_ty	pelvis_tz	hip_flexion_l	hip_adduction_l	hip_rotation_l	hip_flexion_r	hip_adduction_r	hip_rotation_r	knee_angle_l	knee_angle_r	ankle_angle_l	ankle_angle_r	subtalar_angle_l	subtalar_angle_r	lumbar_extension	lumbar_bending	lumbar_rotation	arm_flex_l	arm_add_l	arm_rot_l	arm_flex_r	arm_add_r	arm_rot_r	elbow_flex_l	elbow_flex_r	pro_sup_l	pro_sup_r	
          1.09600000	         -0.03810718	         -0.63223309	          4.77834955	         -1.34115156	          0.93722664	          0.23301273	         39.56623848	          2.80020737	          0.75702813	        -12.78677206	          2.60756619	         -4.31267605	        -86.88874490	        -18.88784167	          0.43740267	          9.23712872	          0.25842686	         11.04578048	        -12.47450871	          1.58599042	          9.73175580	        -43.74974868	        -24.15174526	          6.65597490	        -14.19290218	        -33.57591543	        -11.70794887	         74.27271950	        127.75168669	         86.51662706	         86.51662706	
          1.10352000	         -0.54650449	          0.22631720	          4.87897162	         -1.31825205	          0.94191780	          0.23220781	         40.14551088	          3.77408654	          0.00827122	        -13.80439459	          1.69583104	         -4.52667853	        -83.37645566	        -17.90947608	          0.17998728	          5.82153004	         -0.64111778	         10.64619395	        -11.48848073	          0.50042540	          9.89816978	        -45.65514038	        -24.20409782	          6.06144573	        -13.95402589	        -33.13969015	        -12.10147396	         74.43063036	        130.47091778	         86.51662706	         86.51662706	
          1.11104000	         -1.04979726	          1.04377137	          5.00182723	         -1.29524216	          0.94649834	          0.23133337	         40.54122766	          4.69403611	         -0.67196039	        -14.68242663	          0.82516935	         -4.76316509	        -79.50190964	        -17.09842433	         -0.19680550	          2.20663621	         -1.30904540	         10.21120935	        -10.49404602	         -0.55024592	         10.01769379	        -47.63925327	        -24.17880109	          5.43918144	        -13.87001797	        -32.75264203	        -12.43509661	         74.61233862	        132.99296409	         86.51662706	         86.51662706	
          1.11856000	         -1.52365741	          1.78986300	          5.14033107	         -1.27221351	          0.95093159	          0.23039140	         40.72886071	          5.54129912	         -1.25131614	        -15.42168820	          0.02568908	         -4.99530577	        -75.28201123	        -16.47538636	         -0.60288933	         -1.61724538	         -1.72658890	          9.73352033	         -9.53508156	         -1.52314007	         10.08479695	        -49.66516329	        -24.06996051	          4.81350159	        -13.92230198	        -32.41692723	        -12.71316373	         74.94356345	        135.26495598	         86.51662706	         86.51662706	
          1.12608000	         -1.92801915	          2.40649080	          5.29170221	         -1.24932284	          0.95523025	          0.22939472	         40.67446200	          6.27037021	         -1.68298341	        -16.01771474	         -0.63302825	         -5.17524884	        -70.73181932	        -16.06712950	         -1.05123218	         -5.70311116	         -1.87098701	          9.14314845	         -8.67714200	         -2.34221192	         10.12068271	        -51.52367309	        -23.86768337	          4.20410525	        -14.05810834	        -32.13934947	        -12.94226993	         75.57052651	        137.10667511	         86.51662706	         86.51662706	
          1.13360000	         -2.25395170	          2.88256118	          5.45491634	         -1.22663724	          0.95931859	          0.22839283	         40.36986428	          6.87158756	         -1.96099451	        -16.45202005	         -1.13043793	         -5.27253695	        -65.88606660	        -15.91356556	         -1.61909024	        -10.03901090	         -1.69849632	          8.39839669	         -7.94399068	         -2.99141465	         10.11497754	        -53.16859304	        -23.64960948	          3.61291162	        -14.17328052	        -31.92836896	        -13.12830224	         76.56215068	        138.78336304	         86.51662706	         86.51662706	
          1.14112000	         -2.52151128	          3.25147519	          5.61238649	         -1.20418912	          0.96309270	          0.22741260	         39.82975868	          7.37659717	         -2.10996495	        -16.70265522	         -1.51693014	         -5.32025162	        -60.78556005	        -16.00562520	         -2.33932146	        -14.62242937	         -1.20087477	          7.55001241	         -7.32541128	         -3.50289846	         10.07443761	        -54.51199664	        -23.47218289	          3.04627073	        -14.11467455	        -31.80909726	        -13.28629050	         77.90956337	        140.77216835	         86.51662706	         86.51662706	
          1.14864000	         -2.82880823	          3.61082941	          5.75154898	         -1.18183623	          0.96635677	          0.22650155	         39.12297937	          7.87884395	         -2.19695946	        -16.70932017	         -1.91446128	         -5.38144225	        -55.43140776	        -16.29905529	         -3.20938126	        -19.48166561	         -0.47411987	          6.66170825	         -6.69587579	         -4.00660744	          9.99510787	        -55.69521956	        -23.45294334	          2.48541082	        -13.79419239	        -31.76846607	        -13.43131931	         79.50922726	        143.34567091	         86.51662706	         86.51662706	
          1.15616000	         -3.06279713	          3.84090832	          5.92330674	         -1.15933963	          0.96929435	          0.22558639	         38.11409321	          8.28193401	         -2.12983113	        -16.70080475	         -2.15743873	         -5.45867928	        -49.88934374	        -16.57252035	         -4.08484957	        -23.73709004	          0.49133325	          5.80082341	         -6.14512899	         -4.34849060	          9.86080053	        -56.63487486	        -23.46524153	          1.98335518	        -13.67857367	        -31.63813673	        -13.53967318	         80.74129261	        145.72353988	         86.51662706	         86.51662706	
          1.16368000	         -3.04273420	          3.80326280	          6.12586522	         -1.13673268	          0.97215981	          0.22459777	         36.65998911	          8.45778505	         -1.80286492	        -16.88799026	         -2.07522495	         -5.49929188	        -44.32662989	        -16.80262469	         -4.85850666	        -26.50620195	          1.64998578	          4.99290523	         -5.87146610	         -4.33406816	          9.71742565	        -56.94759851	        -23.30553508	          1.61422272	        -14.09942756	        -31.40805219	        -13.61681582	         81.29108756	        146.99376232	         86.51662706	         86.51662706	
          1.17120000	         -2.86117725	          3.60702182	          6.31175687	         -1.11403748	          0.97471533	          0.22367677	         34.91502479	          8.47040413	         -1.32848294	        -17.13017885	         -1.80222915	         -5.48332951	        -38.90039368	        -17.20842099	         -5.59533691	        -27.78900234	          2.87144615	          4.16431086	         -5.76826348	         -4.12008195	          9.57483550	        -56.87749563	        -23.16003212	          1.33074400	        -14.86029550	        -31.17927834	        -13.68575119	         81.38865445	        147.15643815	         86.51662706	         86.51662706	
          1.17872000	         -2.60788565	          3.33068030	          6.47497239	         -1.09116014	          0.97674103	          0.22295846	         33.04043485	          8.36196285	         -0.81253173	        -17.33669516	         -1.41961245	         -5.41463367	        -33.80076032	        -17.84356772	         -6.34328974	        -27.58549390	          4.13675041	          3.14297983	         -5.72470779	         -3.83413522	          9.38539883	        -56.91075159	        -23.18590423	          1.09962946	        -15.78476825	        -30.93881077	        -13.73734881	         81.08458308	        146.62178177	         86.51662706	         86.51662706	
          1.18624000	         -2.28148494	          2.99713158	          6.61129950	         -1.06812222	          0.97816269	          0.22248313	         31.13255474	          8.14502400	         -0.30812980	        -17.49576549	         -0.95231172	         -5.29399990	        -29.28471013	        -18.76687437	         -7.06200873	        -25.89568961	          5.37859638	          1.94483180	         -5.75215481	         -3.50957459	          9.12808602	        -57.30680898	        -23.37950067	          0.93455169	        -16.71214688	        -30.67768214	        -13.76598821	         80.60321271	        146.02181084	         86.51662706	         86.51662706	
          1.19376000	         -1.86239508	          2.60873835	          6.72978023	         -1.04509232	          0.97903009	          0.22221362	         29.25393494	          7.82550033	          0.13423880	        -17.58684727	         -0.40813065	         -5.12107260	        -25.52754822	        -20.01815625	         -7.68683533	        -23.25249576	          6.51811152	          0.57016696	         -5.89973044	         -3.13873480	          8.81461026	        -57.94883764	        -23.65787862	          0.85615650	        -17.58532862	        -30.39113401	        -13.77182022	         80.23677963	        145.57898913	         86.51662706	         86.51662706	
          1.20128000	         -1.35224221	          2.18477960	          6.83824878	         -1.02230966	          0.97943680	          0.22209490	         27.45121414	          7.42390628	          0.45231080	        -17.54466879	          0.16521916	         -4.91414047	        -22.56556756	        -21.60968200	         -8.34310749	        -21.14681950	          7.53036335	         -0.61092021	         -6.20243748	         -2.72936957	          8.48624676	        -58.49775312	        -23.95133160	          0.85937270	        -18.35668831	        -30.08981672	        -13.75237930	         80.22692617	        145.37766673	         86.51662706	         86.51662706	
          1.20880000	         -0.79299115	          1.80480211	          6.95370904	         -0.99992850	          0.97942101	          0.22207216	         25.76511028	          7.03407154	          0.62935019	        -17.28795110	          0.67480829	         -4.72261099	        -20.31522785	        -23.62606603	         -9.23016545	        -19.80178834	          8.43092103	         -1.66999954	         -6.64272247	         -2.36887885	          8.16883298	        -58.61622977	        -24.22954872	          0.92596841	        -19.07579640	        -29.78885716	        -13.70182069	         80.53880899	        145.23894054	         86.51662706	         86.51662706	
